<?xml version="1.0" encoding="utf-8"?>
<!-- Generator: Adobe Illustrator 24.0.1, SVG Export Plug-In . SVG Version: 6.00 Build 0)  -->
<svg version="1.1" id="Layer_1" xmlns="http://www.w3.org/2000/svg" xmlns:xlink="http://www.w3.org/1999/xlink" x="0px" y="0px"
	 viewBox="0 0 1000 1000" style="enable-background:new 0 0 1000 1000;" xml:space="preserve">
<style type="text/css">
	.st0{fill-rule:evenodd;clip-rule:evenodd;fill:#FFFFFF;}
	.st1{fill:#FFFFFF;}
</style>
<g>
	<path class="st0" d="M500,12.3c-276.1,0-500,223.8-500,500c0,220.9,143.3,408.3,341.9,474.4c25,4.6,34.2-10.9,34.2-24.1
		c0-11.9-0.5-51.3-0.7-93.1c-139.1,30.2-168.5-59-168.5-59c-22.7-57.8-55.5-73.2-55.5-73.2c-45.4-31,3.4-30.4,3.4-30.4
		c50.2,3.5,76.6,51.5,76.6,51.5c44.6,76.4,117,54.3,145.5,41.6c4.5-32.3,17.4-54.4,31.7-66.9C297.7,720.7,181,677.8,181,486.2
		c0-54.6,19.5-99.2,51.5-134.2c-5.2-12.6-22.3-63.4,4.8-132.3c0,0,42-13.4,137.5,51.3c39.9-11.1,82.7-16.6,125.2-16.8
		c42.5,0.2,85.3,5.7,125.3,16.8c95.4-64.7,137.4-51.3,137.4-51.3c27.2,68.9,10.1,119.7,4.9,132.3c32.1,35,51.5,79.6,51.5,134.2
		c0,192-117,234.3-228.3,246.7c17.9,15.5,33.9,45.9,33.9,92.6c0,66.9-0.6,120.7-0.6,137.2c0,13.3,9,28.9,34.3,24
		C856.9,920.5,1000,733.2,1000,512.3C1000,236.2,776.1,12.3,500,12.3z"/>
	<path class="st1" d="M189.4,730.2c-1.1,2.5-5,3.2-8.6,1.5c-3.6-1.6-5.7-5-4.5-7.5c1.1-2.6,5-3.3,8.6-1.6
		C188.6,724.3,190.6,727.7,189.4,730.2L189.4,730.2z M183.2,725.7"/>
	<path class="st1" d="M209.6,752.8c-2.4,2.2-7.1,1.2-10.2-2.3c-3.3-3.5-3.9-8.2-1.5-10.4c2.5-2.2,7-1.2,10.3,2.3
		C211.5,746,212.1,750.6,209.6,752.8L209.6,752.8z M204.9,747.7"/>
	<path class="st1" d="M229.3,781.6c-3.1,2.1-8.1,0.1-11.2-4.3c-3.1-4.4-3.1-9.8,0.1-11.9c3.1-2.1,8-0.2,11.2,4.2
		C232.5,774.1,232.5,779.4,229.3,781.6L229.3,781.6z M229.3,781.6"/>
	<path class="st1" d="M256.4,809.4c-2.7,3-8.6,2.2-12.8-1.9c-4.4-4-5.6-9.8-2.8-12.8c2.8-3,8.7-2.2,13,1.9
		C258,800.7,259.3,806.4,256.4,809.4L256.4,809.4z M256.4,809.4"/>
	<path class="st1" d="M293.6,825.6c-1.2,3.9-6.8,5.7-12.5,4c-5.7-1.7-9.4-6.3-8.2-10.3c1.2-3.9,6.8-5.8,12.5-4
		C291.1,817.1,294.8,821.6,293.6,825.6L293.6,825.6z M293.6,825.6"/>
	<path class="st1" d="M334.5,828.6c0.1,4.1-4.7,7.5-10.6,7.6c-6,0.1-10.8-3.2-10.9-7.3c0-4.2,4.7-7.5,10.7-7.6
		C329.7,821.2,334.5,824.5,334.5,828.6L334.5,828.6z M334.5,828.6"/>
	<path class="st1" d="M372.6,822.1c0.7,4-3.4,8.2-9.3,9.3c-5.8,1.1-11.2-1.4-11.9-5.4c-0.7-4.1,3.5-8.3,9.3-9.3
		C366.6,815.6,371.9,818,372.6,822.1L372.6,822.1z M372.6,822.1"/>
</g>
</svg>
