<svg id="Layer_1" data-name="Layer 1" xmlns="http://www.w3.org/2000/svg" viewBox="0 0 1000 1000"><defs><style>.cls-1{fill:#fff;}</style></defs><title>levada-logo-white</title><path class="cls-1" d="M577.47,147q2.74,2.93,2.74,9.91V366.14h60.6q6.42,0,9.16,2.92t2.74,9.91q0,7-2.74,9.92t-9.16,2.92h-148q-6.42,0-9.16-2.92T480.9,379q0-7,2.74-9.91t9.16-2.92h59.09V169.79H500.35q-6.42,0-9.16-2.93T488.45,157q0-7,2.74-9.91t9.16-2.93h68C572.59,144.11,575.65,145.09,577.47,147Z"/><path class="cls-1" d="M843.68,224.25a75.21,75.21,0,0,1,29.73,30.59q10.38,19.54,11.9,45c0,4.28-.92,7.3-2.74,9.06s-4.88,2.64-9.16,2.64H736.72q1.32,28.14,16.71,42.58T797,368.59a135.38,135.38,0,0,0,34.36-4.44,121,121,0,0,0,29.83-11.8,12.73,12.73,0,0,1,5.85-1.7q6.62,0,10.77,10a18.51,18.51,0,0,1,1.7,7.17q0,7.56-8.31,11.71a150.76,150.76,0,0,1-34.36,11.9A178.36,178.36,0,0,1,797,396q-28.51,0-48.71-11a72.91,72.91,0,0,1-30.77-31.53q-10.58-20.58-10.58-48.9,0-27,11.52-47.77a81.39,81.39,0,0,1,31.91-32.19q20.38-11.41,46.63-11.42Q824.33,213.21,843.68,224.25Zm-85.15,28.14q-15.19,11.79-19.92,32.75H854q-4-21.7-18.22-33.13T797,240.59Q773.73,240.59,758.53,252.39Z"/><path class="cls-1" d="M667.15,455q2.73,2.94,2.74,9.92t-2.74,9.91q-2.74,2.92-9.16,2.92H646.1l-61,140.66a18.24,18.24,0,0,1-7.84,9.34q-5.19,2.93-14.44,2.93-9.06,0-14.07-2.93a19.48,19.48,0,0,1-7.83-9.34L480.52,477.79h-11.7q-6.42,0-9.16-2.92T456.92,465q0-7,2.74-9.92t9.16-2.92h66.83q6.42,0,9.16,2.92t2.74,9.92q0,7-2.74,9.91t-9.16,2.92H511.49L563,600.89l52.11-123.1H598.71q-6.42,0-9.16-2.92T586.82,465q0-7,2.73-9.92t9.16-2.92H658Q664.41,452.12,667.15,455Z"/><path class="cls-1" d="M849.25,463.82q17.73,15.87,17.74,47V586q0,14.92,12.46,14.92h6.61q6.42,0,9.16,2.93t2.74,9.91q0,7-2.74,9.91t-9.16,2.93H874q-12.29,0-21.05-6.14t-11.43-18a118.62,118.62,0,0,1-33.51,21,100.1,100.1,0,0,1-38.23,7.36q-19.07,0-33.7-6.51a52.59,52.59,0,0,1-22.94-19q-8.31-12.47-8.31-29.64,0-29.82,21.34-44.08t55.13-14.26a171.67,171.67,0,0,1,57.39,9.63V510.83q0-18.3-10.29-26.9t-33.13-8.59a117.34,117.34,0,0,0-29.45,4,144.89,144.89,0,0,0-29.08,10.95,12.61,12.61,0,0,1-5.85,1.7q-6.23,0-10.38-9.06a19,19,0,0,1-2.08-7.55q0-6.6,7-10.2a149.75,149.75,0,0,1,34.08-12.74A153.79,153.79,0,0,1,796,448Q831.5,448,849.25,463.82Zm-102,87.51q-12.56,7.45-12.56,23.69,0,13.79,9.54,21.43t26.71,7.65q37.58,0,67.78-31.15V552.37A170.12,170.12,0,0,0,811.11,546a204,204,0,0,0-29.64-2.17Q759.75,543.87,747.2,551.33Z"/><path class="cls-1" d="M638.45,671.49q2.74,2.93,2.74,9.91V890.58h15.48q6.42,0,9.16,2.93t2.74,9.91q0,7-2.74,9.91t-9.16,2.93h-30q-6.42,0-9.15-2.93t-2.74-9.91v-15.1a84.89,84.89,0,0,1-27.57,23.79A71.77,71.77,0,0,1,553,920.42q-23.41,0-41.91-11T482,877.65Q471.46,857,471.46,829T482,780.42q10.58-20.67,29.08-31.72t41.91-11q35.49,0,59.85,31.15V694.24H582.29q-6.43,0-9.16-2.93t-2.74-9.91q0-7,2.74-9.91t9.16-2.93h47C633.57,668.56,636.63,669.54,638.45,671.49ZM526,773.62A50.65,50.65,0,0,0,507.62,796q-6.33,14.34-6.33,33t6.33,33A50.62,50.62,0,0,0,526,884.45q12.09,8,28.89,8t29.92-7.55A52.43,52.43,0,0,0,605.41,863q7.46-14.34,7.46-34t-7.46-34a52.54,52.54,0,0,0-20.58-21.9q-13.12-7.54-29.92-7.55T526,773.62Z"/><path class="cls-1" d="M849.25,753.52q17.73,15.86,17.74,47v75.14q0,14.91,12.46,14.91h6.61q6.42,0,9.16,2.93t2.74,9.91q0,7-2.74,9.91t-9.16,2.93H874q-12.29,0-21.05-6.13t-11.43-18A118.59,118.59,0,0,1,808,913.05a100.11,100.11,0,0,1-38.23,7.37q-19.07,0-33.7-6.52a52.56,52.56,0,0,1-22.94-19q-8.31-12.46-8.31-29.64,0-29.84,21.34-44.09T781.28,807a171.67,171.67,0,0,1,57.39,9.63V800.53q0-18.31-10.29-26.91T795.25,765a117.34,117.34,0,0,0-29.45,4,143.69,143.69,0,0,0-29.08,11,12.73,12.73,0,0,1-5.85,1.7q-6.23,0-10.38-9.06a19,19,0,0,1-2.08-7.55q0-6.62,7-10.2a148.82,148.82,0,0,1,34.08-12.74A153.79,153.79,0,0,1,796,737.66Q831.5,737.66,849.25,753.52ZM747.2,841q-12.56,7.46-12.56,23.69,0,13.78,9.54,21.43t26.71,7.64q37.58,0,67.78-31.15V842.06a171.19,171.19,0,0,0-27.56-6.32,202.63,202.63,0,0,0-29.64-2.17Q759.75,833.57,747.2,841Z"/><path class="cls-1" d="M256.86,631.2c-10.12-13.92-19.55-27.52-29.62-40.65-19.82-25.86-41.06-50.57-62.14-75.42-22.6-26.65-44.5-53.9-66.83-80.79-2.3-2.76-2.47-4.75.17-7.09,4-3.57,8.2-7,12-10.81a521.26,521.26,0,0,0,47.38-53.12c17.08-22.24,31.8-45.81,40.7-72.56a163,163,0,0,0,7.6-36.6c2.11-22.71-5.13-42.74-14.63-62.59a460.84,460.84,0,0,0-60.23-94.22c-3.72-4.52-3.29-8.92,1.08-12.78,8.24-7.28,15-6.62,21.39,2.2q77.6,107,155.18,214c8.88,12.23,17.82,24.43,26.95,36.47,3.11,4.11,3.13,7.13-.29,11.31-27.51,33.63-53.7,68.22-74.89,106.29-9.27,16.67-16.81,34.13-20.95,52.81-5,22.59,2.62,42.59,14,61.51,21.48,35.64,48.35,67.25,74.55,99.36,14.61,17.9,28.78,36.16,41,55.85.87,1.39,2.35,2.66,1.64,5.09-6.62,0-12.14-3.68-18-5.94-28.24-10.88-57.56-16.46-87.57-13.3-28.66,3-54.67,13.1-71.19,39.16-6,9.52-8.48,20.22-9.25,31.32-2.13,30.54,10.05,56.47,26.49,80.89A271.86,271.86,0,0,0,248.2,905c1.68,1.64,4.65,3.08,3,6.38a8.4,8.4,0,0,1-7.17,4.8c-10.51,1-18.8-4.75-27.06-9.55-32.24-18.75-59.87-43.41-84.26-71.24-15-17.09-29.2-35.24-37.59-57.09-7.64-19.89-7.44-40.13-4-60.55,3.77-22,11.9-42.5,26-60,19.2-23.86,43.05-39.25,75-40,20.17-.49,38.94,3.79,57.06,12.07a37.73,37.73,0,0,0,4.88,1.74C254.59,631.67,255.23,631.4,256.86,631.2Z"/></svg>