<svg id="Layer_1" data-name="Layer 1" xmlns="http://www.w3.org/2000/svg" viewBox="0 0 1000 1000"><defs><style>.cls-1{fill:#fff;}.cls-2{fill:#2f2f2f;}</style></defs><title>levada-logo-black</title><rect class="cls-1" width="1000" height="1000"/><path class="cls-2" d="M584.08,147q2.73,2.93,2.74,9.91V366.14h60.6q6.42,0,9.16,2.92t2.74,9.91q0,7-2.74,9.92t-9.16,2.92h-148q-6.42,0-9.16-2.92T487.51,379q0-7,2.74-9.91t9.16-2.92H558.5V169.79H507q-6.42,0-9.16-2.93T495.06,157q0-7,2.74-9.91t9.16-2.93h68C579.2,144.11,582.26,145.09,584.08,147Z"/><path class="cls-2" d="M850.29,224.25A75.21,75.21,0,0,1,880,254.84q10.38,19.54,11.9,45c0,4.28-.92,7.3-2.74,9.06s-4.88,2.64-9.16,2.64H743.33q1.32,28.14,16.71,42.58t43.52,14.44a135.38,135.38,0,0,0,34.36-4.44,121,121,0,0,0,29.83-11.8,12.73,12.73,0,0,1,5.85-1.7q6.61,0,10.76,10a18.33,18.33,0,0,1,1.7,7.17q0,7.56-8.3,11.71a150.76,150.76,0,0,1-34.36,11.9A178.36,178.36,0,0,1,803.56,396q-28.51,0-48.71-11a73,73,0,0,1-30.78-31.53q-10.56-20.58-10.57-48.9,0-27,11.52-47.77a81.33,81.33,0,0,1,31.91-32.19q20.39-11.41,46.63-11.42Q830.94,213.21,850.29,224.25Zm-85.15,28.14q-15.2,11.79-19.92,32.75H860.58q-4-21.7-18.22-33.13t-38.8-11.42Q780.34,240.59,765.14,252.39Z"/><path class="cls-2" d="M673.76,455q2.73,2.94,2.74,9.92t-2.74,9.91q-2.75,2.92-9.16,2.92H652.71l-61,140.66a18.24,18.24,0,0,1-7.84,9.34q-5.19,2.93-14.44,2.93-9.06,0-14.07-2.93a19.48,19.48,0,0,1-7.83-9.34L487.13,477.79h-11.7q-6.42,0-9.16-2.92T463.53,465q0-7,2.74-9.92t9.16-2.92h66.83q6.42,0,9.16,2.92t2.73,9.92q0,7-2.73,9.91t-9.16,2.92H518.1l51.54,123.1,52.1-123.1H605.32q-6.42,0-9.16-2.92T593.43,465q0-7,2.73-9.92t9.16-2.92H664.6Q671,452.12,673.76,455Z"/><path class="cls-2" d="M855.85,463.82q17.74,15.87,17.75,47V586q0,14.92,12.46,14.92h6.61q6.42,0,9.16,2.93t2.73,9.91q0,7-2.73,9.91t-9.16,2.93H880.59q-12.29,0-21.05-6.14t-11.43-18a118.62,118.62,0,0,1-33.51,21,100.1,100.1,0,0,1-38.23,7.36q-19.07,0-33.7-6.51a52.53,52.53,0,0,1-22.94-19q-8.31-12.47-8.31-29.64,0-29.82,21.34-44.08t55.13-14.26a171.67,171.67,0,0,1,57.39,9.63V510.83q0-18.3-10.29-26.9t-33.13-8.59a117.34,117.34,0,0,0-29.45,4,144.89,144.89,0,0,0-29.08,10.95,12.61,12.61,0,0,1-5.85,1.7q-6.24,0-10.39-9.06a19.09,19.09,0,0,1-2.07-7.55q0-6.6,7-10.2a149.75,149.75,0,0,1,34.08-12.74A153.79,153.79,0,0,1,802.61,448Q838.12,448,855.85,463.82Zm-102,87.51q-12.55,7.45-12.56,23.69,0,13.79,9.54,21.43t26.71,7.65q37.57,0,67.78-31.15V552.37A170.36,170.36,0,0,0,817.72,546a204,204,0,0,0-29.64-2.17Q766.36,543.87,753.81,551.33Z"/><path class="cls-2" d="M645.06,671.49q2.73,2.93,2.74,9.91V890.58h15.48q6.42,0,9.16,2.93t2.73,9.91q0,7-2.73,9.91t-9.16,2.93h-30q-6.42,0-9.15-2.93t-2.74-9.91v-15.1a84.89,84.89,0,0,1-27.57,23.79,71.82,71.82,0,0,1-34.17,8.31q-23.42,0-41.91-11t-29.08-31.72Q478.06,857,478.07,829t10.57-48.62q10.58-20.67,29.08-31.72t41.91-11q35.49,0,59.85,31.15V694.24H588.89q-6.42,0-9.15-2.93T577,681.4q0-7,2.74-9.91t9.15-2.93h47Q642.32,668.56,645.06,671.49ZM532.63,773.62A50.74,50.74,0,0,0,514.22,796q-6.32,14.34-6.32,33t6.32,33a50.71,50.71,0,0,0,18.41,22.37q12.09,8,28.89,8t29.92-7.55A52.43,52.43,0,0,0,612,863q7.46-14.34,7.46-34t-7.46-34a52.54,52.54,0,0,0-20.58-21.9q-13.12-7.54-29.92-7.55T532.63,773.62Z"/><path class="cls-2" d="M855.85,753.52q17.74,15.86,17.75,47v75.14q0,14.91,12.46,14.91h6.61q6.42,0,9.16,2.93t2.73,9.91q0,7-2.73,9.91t-9.16,2.93H880.59q-12.29,0-21.05-6.13t-11.43-18a118.59,118.59,0,0,1-33.51,20.95,100.11,100.11,0,0,1-38.23,7.37q-19.07,0-33.7-6.52a52.51,52.51,0,0,1-22.94-19q-8.31-12.46-8.31-29.64,0-29.84,21.34-44.09T787.89,807a171.67,171.67,0,0,1,57.39,9.63V800.53q0-18.31-10.29-26.91T801.86,765a117.34,117.34,0,0,0-29.45,4,143.69,143.69,0,0,0-29.08,11,12.73,12.73,0,0,1-5.85,1.7q-6.24,0-10.39-9.06A19.09,19.09,0,0,1,725,765q0-6.62,7-10.2a148.82,148.82,0,0,1,34.08-12.74,153.79,153.79,0,0,1,36.53-4.44Q838.12,737.66,855.85,753.52ZM753.81,841q-12.55,7.46-12.56,23.69,0,13.78,9.54,21.43t26.71,7.64q37.57,0,67.78-31.15V842.06a171.43,171.43,0,0,0-27.56-6.32,202.63,202.63,0,0,0-29.64-2.17Q766.36,833.57,753.81,841Z"/><path class="cls-2" d="M263.46,631.2c-10.11-13.92-19.55-27.52-29.61-40.65C214,564.69,192.79,540,171.71,515.13c-22.6-26.65-44.5-53.9-66.83-80.79-2.3-2.76-2.47-4.75.17-7.09,4-3.57,8.2-7,12-10.81a521.26,521.26,0,0,0,47.38-53.12c17.07-22.24,31.8-45.81,40.7-72.56a162.45,162.45,0,0,0,7.59-36.6c2.12-22.71-5.12-42.74-14.62-62.59a460.46,460.46,0,0,0-60.24-94.22c-3.71-4.52-3.28-8.92,1.09-12.78,8.24-7.28,15-6.62,21.39,2.2q77.59,107,155.18,214c8.88,12.23,17.82,24.43,26.95,36.47,3.11,4.11,3.13,7.13-.29,11.31-27.51,33.63-53.7,68.22-74.89,106.29-9.27,16.67-16.81,34.13-20.95,52.81-5,22.59,2.62,42.59,14,61.51,21.48,35.64,48.35,67.25,74.55,99.36,14.61,17.9,28.78,36.16,41,55.85.87,1.39,2.35,2.66,1.64,5.09-6.62,0-12.14-3.68-18-5.94C331.3,712.59,302,707,272,710.17c-28.66,3-54.67,13.1-71.19,39.16-6,9.52-8.48,20.22-9.25,31.32-2.13,30.54,10.05,56.47,26.49,80.89A272.32,272.32,0,0,0,254.8,905c1.69,1.64,4.66,3.08,3,6.38a8.4,8.4,0,0,1-7.17,4.8c-10.51,1-18.8-4.75-27.06-9.55-32.24-18.75-59.87-43.41-84.26-71.24-15-17.09-29.2-35.24-37.59-57.09-7.64-19.89-7.45-40.13-4-60.55,3.77-22,11.9-42.5,26-60,19.2-23.86,43.05-39.25,75-40,20.16-.49,38.94,3.79,57.06,12.07a38.13,38.13,0,0,0,4.87,1.74C261.2,631.67,261.84,631.4,263.46,631.2Z"/></svg>