<?xml version="1.0" encoding="utf-8"?>
<!-- Generator: Adobe Illustrator 24.0.1, SVG Export Plug-In . SVG Version: 6.00 Build 0)  -->
<svg version="1.1" id="Layer_1" xmlns="http://www.w3.org/2000/svg" xmlns:xlink="http://www.w3.org/1999/xlink" x="0px" y="0px"
	 viewBox="0 0 18 18" style="enable-background:new 0 0 18 18;" xml:space="preserve">
<style type="text/css">
	.st0{fill:none;}
	.st1{fill:#FFFFFF;}
</style>
<path class="st0" d="M0,0h18v18H0V0z"/>
<path class="st1" d="M15,9.8V15l-1.8-1.8C12.2,14.3,10.7,15,9,15c-3.3,0-6-2.7-6-6h1.5c0,2.5,2,4.5,4.5,4.5c1.2,0,2.3-0.5,3.2-1.3
	L9.8,9.8H15z"/>
<path class="st1" d="M15,9.8V15l-1.8-1.8C12.2,14.3,10.7,15,9,15c-3.3,0-6-2.7-6-6h1.5c0,2.5,2,4.5,4.5,4.5c1.2,0,2.3-0.5,3.2-1.3
	L9.8,9.8H15z"/>
<path class="st1" d="M3,8.3V3l1.8,1.8C5.8,3.7,7.3,3,9,3c3.3,0,6,2.7,6,6h-1.5c0-2.5-2-4.5-4.5-4.5C7.8,4.5,6.7,5,5.8,5.8l2.4,2.4H3
	z"/>
</svg>
