<?xml version="1.0" encoding="utf-8"?>
<!-- Generator: Adobe Illustrator 24.0.1, SVG Export Plug-In . SVG Version: 6.00 Build 0)  -->
<svg version="1.1" id="Layer_1" xmlns="http://www.w3.org/2000/svg" xmlns:xlink="http://www.w3.org/1999/xlink" x="0px" y="0px"
	 viewBox="0 0 18 18" style="enable-background:new 0 0 18 18;" xml:space="preserve">
<style type="text/css">
	.st0{fill:none;}
	.st1{fill:#FFFFFF;}
</style>
<path class="st0" d="M0,0h18v18H0V0z"/>
<path class="st1" d="M15.4,2.6C13.7,1,11.5,0,9,0C4,0,0,4,0,9s4,9,9,9c4.2,0,7.7-2.9,8.7-6.8h-2.3c-0.9,2.6-3.4,4.5-6.4,4.5
	c-3.7,0-6.8-3-6.8-6.8s3-6.8,6.8-6.8c1.9,0,3.5,0.8,4.7,2l-3.6,3.6H18V0L15.4,2.6z"/>
</svg>
