<?xml version="1.0" encoding="utf-8"?>
<!-- Generator: Adobe Illustrator 24.0.1, SVG Export Plug-In . SVG Version: 6.00 Build 0)  -->
<svg version="1.1" id="Layer_1" xmlns="http://www.w3.org/2000/svg" xmlns:xlink="http://www.w3.org/1999/xlink" x="0px" y="0px"
	 viewBox="0 0 1000 1000" style="enable-background:new 0 0 1000 1000;" xml:space="preserve">
<style type="text/css">
	.st0{fill:#FFFFFF;}
</style>
<g>
	<path class="st0" d="M452.9,857.4l-81.6-85.6l-17.4-18.3L335.5,771l-49.1,46.8l-18.3,17.4l17.4,18.3l80.4,84.3
		c-39.3,21.5-82.5,32.8-129.4,31.5c-27.8-0.8-53.2-9.2-74.6-27.7c-23.2-20.1-30.4-45.3-22.7-74.7c11.8-44.3,40.7-76,77.9-100.1
		c35.6-23.1,74.5-39.1,117.3-44.8c29.2-3.9,57.1,0.1,84.5,9.7c16.4,5.8,18.6,4.5,19-13.2c0.3-16.8,0.1-33.5,0.1-50.3
		c0-211.4,0-422.7,0-634.1c0-7,0-14.1,0.6-21.1c0.8-9.2,6.5-13.1,15.4-13.1c8.7,0,14.8,3.4,15.8,12.7c0.6,6.4,0.7,12.9,0.7,19.4
		c0,127.6,0,255.2,0,382.8c0,120-2.1,240.1,0.9,360C472.2,806.5,465.7,833.8,452.9,857.4z"/>
	<polygon class="st0" points="863.7,615.2 460.1,1000 388.1,924.4 303.9,836.1 353,789.3 438.6,879.1 462.4,904 816.9,566.1 	"/>
</g>
</svg>
