<?xml version="1.0" encoding="utf-8"?>
<!-- Generator: Adobe Illustrator 24.0.1, SVG Export Plug-In . SVG Version: 6.00 Build 0)  -->
<svg version="1.1" id="Layer_1" xmlns="http://www.w3.org/2000/svg" xmlns:xlink="http://www.w3.org/1999/xlink" x="0px" y="0px"
	 viewBox="0 0 18 18" style="enable-background:new 0 0 18 18;" xml:space="preserve">
<style type="text/css">
	.st0{fill:#FFFFFF;}
</style>
<path class="st0" d="M18,10.2V18l-2.7-2.7C13.8,17,11.5,18,9,18c-5,0-9-4-9-9h2.3c0,3.8,3,6.8,6.8,6.8c1.8,0,3.5-0.8,4.8-2l-3.6-3.6
	H18z"/>
<path class="st0" d="M18,10.2V18l-2.7-2.7C13.8,17,11.5,18,9,18c-5,0-9-4-9-9h2.3c0,3.8,3,6.8,6.8,6.8c1.8,0,3.5-0.8,4.8-2l-3.6-3.6
	H18z"/>
<path class="st0" d="M0,8V0l2.7,2.7C4.2,1.1,6.5,0,9,0c5,0,9,4,9,9h-2.3c0-3.8-3-6.8-6.8-6.8c-1.8,0-3.5,0.8-4.8,2l3.6,3.6H0V8z"/>
</svg>
