<?xml version="1.0" encoding="utf-8"?>
<!-- Generator: Adobe Illustrator 24.0.1, SVG Export Plug-In . SVG Version: 6.00 Build 0)  -->
<svg version="1.1" id="Layer_1" xmlns="http://www.w3.org/2000/svg" xmlns:xlink="http://www.w3.org/1999/xlink" x="0px" y="0px"
	 viewBox="0 0 18 18" style="enable-background:new 0 0 18 18;" xml:space="preserve">
<style type="text/css">
	.st0{fill:#FFFFFF;}
</style>
<path class="st0" d="M2.9,11.9l-1.7,1.7C0.5,12.2,0,10.7,0,9h2.3C2.3,10,2.5,11,2.9,11.9z"/>
<path class="st0" d="M18,10.2V18l-2.7-2.7C13.8,17,11.5,18,9,18c-1.7,0-3.2-0.5-4.6-1.2l1.7-1.7c0.9,0.5,1.9,0.7,3,0.7
	c1.8,0,3.5-0.8,4.8-2l-3.3-3.3l-0.3-0.3H18z"/>
<path class="st0" d="M13.6,1.2l-1.7,1.7C11,2.5,10,2.2,8.9,2.2c-1.8,0-3.5,0.8-4.8,2l3.3,3.3l0.3,0.3H0V0l2.7,2.7C4.2,1.1,6.5,0,9,0
	C10.7,0,12.2,0.5,13.6,1.2z"/>
<path class="st0" d="M18,9h-2.3c0-1-0.2-2-0.6-2.9l1.7-1.7C17.5,5.8,18,7.3,18,9z"/>
<polygon class="st0" points="17.9,1.9 16.2,3.6 3.6,16.2 1.9,17.9 0.1,16.1 1.8,14.4 14.4,1.8 16.1,0.1 "/>
</svg>
