<?xml version="1.0" encoding="utf-8"?>
<!-- Generator: Adobe Illustrator 24.0.1, SVG Export Plug-In . SVG Version: 6.00 Build 0)  -->
<svg version="1.1" id="Capa_1" xmlns="http://www.w3.org/2000/svg" xmlns:xlink="http://www.w3.org/1999/xlink" x="0px" y="0px"
	 viewBox="0 0 477.9 477.9" style="enable-background:new 0 0 477.9 477.9;" xml:space="preserve">
<style type="text/css">
	.st0{fill:#FFFFFF;}
</style>
<g>
	<g>
		<path class="st0" d="M472.9,124.3C472.9,124.3,472.9,124.2,472.9,124.3L472.9,124.3L404.6,56c-6.8-6.5-17.6-6.4-24.1,0.4
			c-6.4,6.6-6.4,17.1,0,23.7l39.2,39.2h-95.3c-65.9,0.1-119.4,53.5-119.5,119.5c-0.1,47.1-38.2,85.3-85.3,85.3H17.1
			c-9.4,0-17.1,7.6-17.1,17.1s7.6,17.1,17.1,17.1h102.4c65.9-0.1,119.4-53.5,119.5-119.5c0.1-47.1,38.2-85.3,85.3-85.3h95.3
			l-39.1,39.1c-6.8,6.5-7,17.4-0.4,24.1c6.5,6.8,17.4,7,24.1,0.4c0.1-0.1,0.3-0.3,0.4-0.4l68.3-68.3
			C479.5,141.7,479.6,130.9,472.9,124.3z"/>
	</g>
</g>
<g>
	<g>
		<path class="st0" d="M472.9,329.1C472.9,329.1,472.9,329,472.9,329.1L472.9,329.1l-68.3-68.3c-6.8-6.5-17.6-6.4-24.1,0.4
			c-6.4,6.6-6.4,17.1,0,23.7l39.2,39.2h-95.3c-21,0-41.3-7.7-56.9-21.7c-7.1-6.2-17.9-5.5-24.1,1.6c-6.1,7-5.6,17.6,1.3,23.9
			c21.9,19.6,50.3,30.5,79.7,30.4h95.3l-39.1,39.1c-6.8,6.5-7,17.4-0.4,24.1c6.5,6.8,17.4,7,24.1,0.4c0.1-0.1,0.3-0.3,0.4-0.4
			l68.3-68.3C479.5,346.5,479.6,335.7,472.9,329.1z"/>
	</g>
</g>
<g>
	<g>
		<path class="st0" d="M199.1,149.7c-21.9-19.6-50.3-30.5-79.7-30.4H17.1c-9.4,0-17.1,7.6-17.1,17.1s7.6,17.1,17.1,17.1h102.4
			c21,0,41.3,7.7,56.9,21.7c7.1,6.2,17.9,5.5,24.1-1.6C206.6,166.6,206,156,199.1,149.7z"/>
	</g>
</g>
</svg>
