<?xml version="1.0" encoding="utf-8"?>
<!-- Generator: Adobe Illustrator 24.0.1, SVG Export Plug-In . SVG Version: 6.00 Build 0)  -->
<svg version="1.1" id="Layer_1" xmlns="http://www.w3.org/2000/svg" xmlns:xlink="http://www.w3.org/1999/xlink" x="0px" y="0px"
	 viewBox="0 0 18 18" style="enable-background:new 0 0 18 18;" xml:space="preserve">
<style type="text/css">
	.st0{fill:#FFFFFF;}
</style>
<path class="st0" d="M13.5,9c0-1.8-1-3.3-2.5-4v2.2l2.5,2.4C13.5,9.4,13.5,9.2,13.5,9z M16,9c0,0.9-0.2,1.8-0.5,2.6l1.5,1.5
	c0.7-1.2,1-2.6,1-4.1c0-4.3-3-7.9-7-8.8v2.1C13.9,3.1,16,5.8,16,9z M1.3,0L0,1.3L4.7,6H0v6h4l5,5v-6.7l4.3,4.3
	c-0.7,0.5-1.4,0.9-2.3,1.2v2.1c1.4-0.3,2.6-1,3.7-1.8l2,2l1.3-1.3l-9-9L1.3,0z M9,1L6.9,3.1L9,5.2V1z"/>
</svg>
